<svg width="118" height="51" viewBox="0 0 118 51" fill="none" xmlns="http://www.w3.org/2000/svg">
<path d="M27.6314 30.4264C27.6314 30.0385 27.7845 29.7017 28.0906 29.416C28.4172 29.1098 28.6622 28.9057 28.8255 28.8036C29.0092 28.6811 29.1316 28.5893 29.1929 28.5281C29.2949 30.3855 30.5503 31.3143 32.9589 31.3143C34.8571 31.3143 37.0718 30.7223 39.6029 29.5384C41.3991 28.722 42.6034 27.8851 43.2158 27.0278C43.4199 26.7624 43.5219 26.5481 43.5219 26.3848C43.5219 26.2011 43.4913 26.0582 43.4301 25.9562L30.7238 23.1087C30.3564 23.0271 29.9991 22.8536 29.6521 22.5882C29.0194 22.1392 28.703 21.7309 28.703 21.3635C28.703 19.9551 29.7032 18.6794 31.7035 17.5363C33.908 16.2912 36.8575 15.3523 40.552 14.7195C41.3889 14.5766 42.0115 14.495 42.4197 14.4746C42.5422 14.5154 42.7259 14.5562 42.9708 14.597C43.2362 14.6174 43.5015 14.6583 43.7669 14.7195C44.3996 14.8624 44.665 15.1277 44.5629 15.5156C44.5629 16.2096 43.2362 16.7607 40.5826 17.1689C37.1535 17.6792 35.0102 18.1079 34.1529 18.4549C33.3161 18.8019 32.7037 19.1591 32.3159 19.5265C31.9485 19.8939 31.7546 20.3327 31.7341 20.843C31.7341 20.9451 31.9689 21.0574 32.4384 21.1798C32.9078 21.3023 33.4691 21.4554 34.1223 21.6391C34.7755 21.8024 35.6226 22.0269 36.6636 22.3127C39.1946 23.0067 42.2972 23.8844 45.9713 24.9458C46.1755 25.3949 46.2775 25.8133 46.2775 26.2011C46.2775 27.2829 45.6448 28.3239 44.3792 29.3241C42.9504 30.4468 40.9705 31.3959 38.4394 32.1716C36.337 32.8043 34.6632 33.1207 33.4181 33.1207C32.3771 33.1207 31.3871 32.937 30.4482 32.5696C29.5093 32.2022 28.8051 31.845 28.3356 31.498C27.8661 31.151 27.6314 30.7938 27.6314 30.4264ZM48.4208 21.2411C48.3799 21.139 48.3595 21.0267 48.3595 20.9043C48.3595 20.7614 48.4106 20.5777 48.5126 20.3532C48.6147 20.1286 48.7576 19.9347 48.9413 19.7714C49.1454 19.6081 49.3597 19.5367 49.5842 19.5571C49.8292 19.5571 50.0231 19.7 50.166 19.9857L55.3097 29.5384C55.473 29.2935 55.7282 28.8444 56.0752 28.1913C56.4426 27.5177 56.8508 26.7624 57.2999 25.9256C57.7693 25.0887 58.249 24.2212 58.7389 23.3231C59.2492 22.4045 59.7187 21.5677 60.1473 20.8124C61.1271 19.0774 61.7088 18.2099 61.8925 18.2099C62.3212 18.2099 62.6273 18.3732 62.811 18.6998C63.0152 19.006 63.1172 19.2407 63.1172 19.404C63.1172 19.5673 63.1172 19.6796 63.1172 19.7408C61.9742 22.231 60.9128 24.5274 59.933 26.6298C58.9736 28.7322 58.3307 30.0998 58.0041 30.7325C57.6979 31.3449 57.4223 31.8348 57.1774 32.2022C56.7488 32.8349 56.3303 33.1513 55.9221 33.1513C55.5138 33.1513 55.0444 32.8349 54.5137 32.2022C53.983 31.549 53.3808 30.6815 52.7072 29.5997C51.5233 27.6401 50.0945 24.8539 48.4208 21.2411Z" fill="#A1B6EE"/>
<path d="M21.1107 34.0221L2.92623 26.7484V23.9893L21.1107 16.7156V19.3074L4.01311 26.0377V24.7L21.1107 31.4303V34.0221ZM66.7628 44.1803L80.5579 4.80164H83.2751L69.48 44.1803H66.7628ZM84.7365 34.0221V31.4303L101.834 24.7V26.0377L84.7365 19.3074V16.7156L102.921 23.9893V26.7484L84.7365 34.0221Z" fill="#BDFF00"/>
</svg>
