<svg width="118" height="51" viewBox="0 0 118 51" fill="none" xmlns="http://www.w3.org/2000/svg">
<path d="M27.6314 30.4264C27.6314 30.0386 27.7845 29.7018 28.0906 29.416C28.4172 29.1099 28.6622 28.9057 28.8255 28.8037C29.0092 28.6812 29.1316 28.5894 29.1929 28.5281C29.2949 30.3856 30.5503 31.3143 32.9589 31.3143C34.8571 31.3143 37.0718 30.7224 39.6029 29.5385C41.3991 28.722 42.6034 27.8852 43.2158 27.0279C43.4199 26.7625 43.5219 26.5482 43.5219 26.3849C43.5219 26.2012 43.4913 26.0583 43.4301 25.9562L30.7238 23.1088C30.3564 23.0272 29.9991 22.8537 29.6521 22.5883C29.0194 22.1392 28.703 21.731 28.703 21.3636C28.703 19.9552 29.7032 18.6794 31.7035 17.5364C33.908 16.2913 36.8575 15.3523 40.552 14.7196C41.3889 14.5767 42.0115 14.495 42.4197 14.4746C42.5422 14.5155 42.7259 14.5563 42.9708 14.5971C43.2362 14.6175 43.5015 14.6583 43.7669 14.7196C44.3996 14.8625 44.665 15.1278 44.5629 15.5156C44.5629 16.2096 43.2362 16.7607 40.5826 17.169C37.1535 17.6793 35.0102 18.1079 34.1529 18.4549C33.3161 18.8019 32.7037 19.1591 32.3159 19.5265C31.9485 19.8939 31.7546 20.3328 31.7341 20.8431C31.7341 20.9452 31.9689 21.0574 32.4384 21.1799C32.9078 21.3024 33.4691 21.4554 34.1223 21.6392C34.7755 21.8024 35.6226 22.027 36.6636 22.3127C39.1946 23.0067 42.2972 23.8844 45.9713 24.9459C46.1755 25.3949 46.2775 25.8134 46.2775 26.2012C46.2775 27.283 45.6448 28.324 44.3792 29.3242C42.9504 30.4468 40.9705 31.396 38.4394 32.1716C36.337 32.8044 34.6632 33.1208 33.4181 33.1208C32.3771 33.1208 31.3871 32.9371 30.4482 32.5696C29.5093 32.2022 28.8051 31.845 28.3356 31.498C27.8661 31.151 27.6314 30.7938 27.6314 30.4264ZM48.4208 21.2411C48.3799 21.1391 48.3595 21.0268 48.3595 20.9043C48.3595 20.7614 48.4106 20.5777 48.5126 20.3532C48.6147 20.1287 48.7576 19.9348 48.9413 19.7715C49.1454 19.6082 49.3597 19.5367 49.5842 19.5572C49.8292 19.5572 50.0231 19.7 50.166 19.9858L55.3097 29.5385C55.473 29.2936 55.7282 28.8445 56.0752 28.1913C56.4426 27.5177 56.8508 26.7625 57.2999 25.9256C57.7693 25.0887 58.249 24.2212 58.7389 23.3231C59.2492 22.4046 59.7187 21.5677 60.1473 20.8125C61.1271 19.0775 61.7088 18.21 61.8925 18.21C62.3212 18.21 62.6273 18.3733 62.811 18.6999C63.0152 19.006 63.1172 19.2408 63.1172 19.4041C63.1172 19.5674 63.1172 19.6796 63.1172 19.7409C61.9742 22.2311 60.9128 24.5274 59.933 26.6298C58.9736 28.7322 58.3307 30.0998 58.0041 30.7326C57.6979 31.3449 57.4223 31.8348 57.1774 32.2022C56.7488 32.835 56.3303 33.1514 55.9221 33.1514C55.5138 33.1514 55.0444 32.835 54.5137 32.2022C53.983 31.5491 53.3808 30.6816 52.7072 29.5997C51.5233 27.6402 50.0945 24.854 48.4208 21.2411Z" fill="#22827C"/>
<path d="M21.1107 19.3074L5.72705 25.3689L21.1107 31.4303V34.0221L2.92623 26.7484V23.9893L21.1107 16.6738V19.3074ZM80.5579 4.80164H83.2751L69.48 44.1803H66.7628L80.5579 4.80164ZM102.921 23.9893V26.7484L84.7365 34.0221V31.4303L100.12 25.3689L84.7365 19.3074V16.6738L102.921 23.9893Z" fill="#FF0000"/>
</svg>
