<svg width="128" height="98" viewBox="0 0 128 98" fill="none" xmlns="http://www.w3.org/2000/svg">
<path d="M31.2928 63.4622C31.2928 62.6536 31.612 61.9513 32.2504 61.3555C32.9314 60.7171 33.4421 60.2915 33.7826 60.0787C34.1657 59.8233 34.421 59.6318 34.5487 59.5041C34.7615 63.3771 37.379 65.3136 42.4012 65.3136C46.3593 65.3136 50.9771 64.0794 56.2547 61.6109C60 59.9084 62.5111 58.1634 63.7879 56.3759C64.2135 55.8226 64.4263 55.3757 64.4263 55.0352C64.4263 54.6522 64.3625 54.3543 64.2348 54.1415L37.7408 48.2042C36.9747 48.034 36.2299 47.6722 35.5063 47.1189C34.1869 46.1826 33.5273 45.3314 33.5273 44.5653C33.5273 41.6286 35.6127 38.9686 39.7837 36.5852C44.3802 33.989 50.5302 32.0312 58.2337 30.7118C59.9787 30.4139 61.2768 30.2436 62.128 30.2011C62.3834 30.2862 62.7664 30.3713 63.2772 30.4564C63.8305 30.499 64.3838 30.5841 64.937 30.7118C66.2564 31.0097 66.8097 31.563 66.5969 32.3717C66.5969 33.8187 63.8305 34.9679 58.2976 35.8191C51.1474 36.8831 46.6785 37.7769 44.891 38.5004C43.146 39.2239 41.8691 39.9688 41.0605 40.7348C40.2944 41.5009 39.8901 42.416 39.8475 43.48C39.8475 43.6928 40.337 43.9269 41.3159 44.1823C42.2948 44.4376 43.4652 44.7568 44.8271 45.1399C46.1891 45.4804 47.9553 45.9485 50.1259 46.5444C55.4034 47.9914 61.8727 49.8216 69.5336 52.0347C69.9592 52.971 70.172 53.8435 70.172 54.6522C70.172 56.9079 68.8526 59.0785 66.2139 61.164C63.2346 63.5048 59.1062 65.4839 53.8287 67.1012C49.445 68.4206 45.955 69.0803 43.3588 69.0803C41.1882 69.0803 39.124 68.6972 37.1662 67.9311C35.2084 67.165 33.7401 66.4202 32.7612 65.6967C31.7823 64.9732 31.2928 64.2283 31.2928 63.4622ZM74.6409 44.3099C74.5558 44.0971 74.5132 43.8631 74.5132 43.6077C74.5132 43.3098 74.6196 42.9267 74.8324 42.4586C75.0452 41.9904 75.3431 41.5861 75.7262 41.2456C76.1518 40.9051 76.5987 40.7561 77.0668 40.7987C77.5776 40.7987 77.9819 41.0966 78.2798 41.6925L89.0051 61.6109C89.3456 61.1001 89.8776 60.1638 90.6011 58.8019C91.3672 57.3974 92.2184 55.8226 93.1548 54.0776C94.1337 52.3326 95.1338 50.5238 96.1553 48.6511C97.2193 46.7359 98.1982 44.9909 99.092 43.4162C101.135 39.7985 102.348 37.9897 102.731 37.9897C103.625 37.9897 104.263 38.3302 104.646 39.0111C105.072 39.6495 105.285 40.139 105.285 40.4795C105.285 40.82 105.285 41.0541 105.285 41.1817C102.901 46.3741 100.688 51.1622 98.6451 55.546C96.6447 59.9297 95.3041 62.7813 94.6231 64.1007C93.9847 65.3775 93.4101 66.3989 92.8994 67.165C92.0056 68.4844 91.1331 69.1441 90.2819 69.1441C89.4307 69.1441 88.4518 68.4844 87.3452 67.165C86.2387 65.8031 84.9831 63.9943 83.5786 61.7385C81.1101 57.6527 78.1309 51.8432 74.6409 44.3099Z" fill="#BDFF00"/>
<path d="M32.2504 61.3555L32.9328 62.0866L32.9344 62.085L32.2504 61.3555ZM33.7826 60.0787L34.3126 60.9267L34.3251 60.9189L34.3373 60.9107L33.7826 60.0787ZM34.5487 59.5041L35.5472 59.4492L35.4244 57.2142L33.8416 58.797L34.5487 59.5041ZM56.2547 61.6109L55.8408 60.7004L55.831 60.7051L56.2547 61.6109ZM63.7879 56.3759L62.9953 55.7662L62.9845 55.7802L62.9742 55.7947L63.7879 56.3759ZM64.2348 54.1415L65.0923 53.627L64.8717 53.2594L64.4535 53.1657L64.2348 54.1415ZM37.7408 48.2042L37.9594 47.2284L37.9577 47.2281L37.7408 48.2042ZM35.5063 47.1189L36.1138 46.3246L36.0996 46.3138L36.0851 46.3034L35.5063 47.1189ZM39.7837 36.5852L39.2919 35.7145L39.2875 35.7169L39.7837 36.5852ZM58.2337 30.7118L58.0654 29.7261L58.0649 29.7262L58.2337 30.7118ZM62.128 30.2011L62.4443 29.2524L62.2659 29.1929L62.0781 29.2023L62.128 30.2011ZM63.2772 30.4564L63.1128 31.4428L63.1564 31.4501L63.2005 31.4535L63.2772 30.4564ZM64.937 30.7118L64.7122 31.6862L64.7168 31.6872L64.937 30.7118ZM66.5969 32.3717L65.6298 32.1172L65.5969 32.2423V32.3717H66.5969ZM58.2976 35.8191L58.4448 36.8082L58.4496 36.8075L58.2976 35.8191ZM44.891 38.5004L44.5158 37.5734L44.5079 37.5767L44.891 38.5004ZM41.0605 40.7348L40.3728 40.0089L40.3629 40.0182L40.3534 40.0277L41.0605 40.7348ZM39.8475 43.48L38.8483 43.44L38.8475 43.46V43.48H39.8475ZM44.8271 45.1399L44.5564 46.1025L44.5704 46.1065L44.5846 46.11L44.8271 45.1399ZM50.1259 46.5444L49.8612 47.5087L49.8615 47.5088L50.1259 46.5444ZM69.5336 52.0347L70.444 51.6209L70.2534 51.2018L69.8111 51.074L69.5336 52.0347ZM66.2139 61.164L66.8317 61.9503L66.8339 61.9485L66.2139 61.164ZM53.8287 67.1012L54.1169 68.0588L54.1217 68.0573L53.8287 67.1012ZM32.2928 63.4622C32.2928 62.9546 32.4789 62.5102 32.9328 62.0866L31.5681 60.6244C30.7452 61.3925 30.2928 62.3526 30.2928 63.4622H32.2928ZM32.9344 62.085C33.6135 61.4483 34.0625 61.083 34.3126 60.9267L33.2526 59.2307C32.8218 59.5 32.2493 59.9858 31.5665 60.626L32.9344 62.085ZM34.3373 60.9107C34.7165 60.6579 35.0496 60.4174 35.2558 60.2112L33.8416 58.797C33.7925 58.8461 33.6148 58.9887 33.2279 59.2466L34.3373 60.9107ZM33.5502 59.559C33.6695 61.7299 34.4821 63.4854 36.0767 64.6652C37.6283 65.8131 39.785 66.3136 42.4012 66.3136V64.3136C39.9952 64.3136 38.332 63.8459 37.2662 63.0574C36.2433 62.3006 35.6407 61.1514 35.5472 59.4492L33.5502 59.559ZM42.4012 66.3136C46.5581 66.3136 51.3257 65.0203 56.6783 62.5167L55.831 60.7051C50.6286 63.1384 46.1605 64.3136 42.4012 64.3136V66.3136ZM56.6685 62.5212C60.4562 60.7995 63.1675 58.965 64.6016 56.9571L62.9742 55.7947C61.8547 57.3619 59.5438 59.0173 55.8409 60.7005L56.6685 62.5212ZM64.5805 56.9856C65.0236 56.4096 65.4263 55.732 65.4263 55.0352H63.4263C63.4263 55.0049 63.4331 55.0504 63.3638 55.1958C63.2973 55.3356 63.1811 55.5246 62.9953 55.7662L64.5805 56.9856ZM65.4263 55.0352C65.4263 54.5614 65.3508 54.0578 65.0923 53.627L63.3773 54.656C63.3733 54.6493 63.3867 54.6691 63.4006 54.734C63.4146 54.7992 63.4263 54.897 63.4263 55.0352H65.4263ZM64.4535 53.1657L37.9594 47.2284L37.5221 49.18L64.0161 55.1173L64.4535 53.1657ZM37.9577 47.2281C37.3545 47.094 36.7403 46.8037 36.1138 46.3246L34.8989 47.9133C35.7194 48.5408 36.5949 48.974 37.5238 49.1804L37.9577 47.2281ZM36.0851 46.3034C35.4696 45.8666 35.06 45.4851 34.8124 45.1657C34.5645 44.8458 34.5273 44.6522 34.5273 44.5653H32.5273C32.5273 45.2445 32.8198 45.8595 33.2316 46.3909C33.6437 46.9226 34.2237 47.4349 34.9276 47.9345L36.0851 46.3034ZM34.5273 44.5653C34.5273 42.1755 36.2126 39.7775 40.2798 37.4534L39.2875 35.7169C35.0128 38.1596 32.5273 41.0817 32.5273 44.5653H34.5273ZM40.2755 37.4559C44.7359 34.9366 50.7633 33.0058 58.4025 31.6975L58.0649 29.7262C50.2972 31.0565 44.0245 33.0414 39.2919 35.7145L40.2755 37.4559ZM58.402 31.6975C60.1401 31.4008 61.3894 31.2393 62.178 31.1998L62.0781 29.2023C61.1642 29.248 59.8173 29.427 58.0654 29.7261L58.402 31.6975ZM61.8118 31.1498C62.1432 31.2602 62.5884 31.3554 63.1128 31.4428L63.4416 29.47C62.9445 29.3872 62.6236 29.3122 62.4443 29.2524L61.8118 31.1498ZM63.2005 31.4535C63.7027 31.4921 64.2065 31.5695 64.7122 31.6862L65.1619 29.7374C64.561 29.5987 63.9582 29.5059 63.3539 29.4594L63.2005 31.4535ZM64.7168 31.6872C65.3103 31.8213 65.557 31.9799 65.6344 32.0573C65.6597 32.0826 65.649 32.0808 65.6427 32.0556C65.6373 32.034 65.6484 32.0467 65.6298 32.1172L67.564 32.6262C67.7533 31.9067 67.5972 31.1916 67.0486 30.6431C66.5728 30.1673 65.8832 29.9003 65.1573 29.7364L64.7168 31.6872ZM65.5969 32.3717C65.5969 32.3784 65.604 32.4747 65.3939 32.6719C65.1716 32.8805 64.7758 33.1306 64.1385 33.3953C62.8681 33.923 60.8885 34.4087 58.1455 34.8307L58.4496 36.8075C61.2396 36.3782 63.4096 35.8638 64.9057 35.2423C65.6516 34.9325 66.2932 34.5708 66.7625 34.1303C67.244 33.6784 67.5969 33.0885 67.5969 32.3717H65.5969ZM58.1504 34.83C54.5672 35.3632 51.6444 35.8554 49.3872 36.3068C47.1515 36.754 45.5051 37.173 44.5158 37.5735L45.2662 39.4274C46.0644 39.1043 47.5461 38.7147 49.7794 38.268C51.9911 37.8257 54.8778 37.339 58.4448 36.8082L58.1504 34.83ZM44.5079 37.5767C42.7175 38.319 41.3109 39.1201 40.3728 40.0089L41.7482 41.4608C42.4274 40.8174 43.5744 40.1288 45.274 39.4242L44.5079 37.5767ZM40.3534 40.0277C39.413 40.9682 38.9011 42.12 38.8483 43.44L40.8467 43.52C40.879 42.712 41.1758 42.0337 41.7676 41.442L40.3534 40.0277ZM38.8475 43.48C38.8475 43.9385 39.1105 44.241 39.265 44.3821C39.4299 44.5327 39.621 44.6397 39.7831 44.7173C40.115 44.876 40.5555 45.0174 41.0634 45.1499L41.5683 43.2146C41.0974 43.0918 40.8037 42.9884 40.6461 42.913C40.5635 42.8736 40.571 42.8663 40.6136 42.9051C40.6457 42.9345 40.8475 43.128 40.8475 43.48H38.8475ZM41.0634 45.1499C42.0343 45.4032 43.1983 45.7206 44.5564 46.1025L45.0979 44.1772C43.732 43.7931 42.5552 43.4721 41.5683 43.2146L41.0634 45.1499ZM44.5846 46.11C45.9361 46.4479 47.6942 46.9138 49.8612 47.5087L50.3906 45.5801C48.2165 44.9832 46.442 44.5128 45.0697 44.1697L44.5846 46.11ZM49.8615 47.5088C55.1332 48.9542 61.5977 50.783 69.2561 52.9954L69.8111 51.074C62.1476 48.8601 55.6737 47.0286 50.3904 45.58L49.8615 47.5088ZM68.6232 52.4485C69.0053 53.289 69.172 54.0195 69.172 54.6522H71.172C71.172 53.6675 70.9131 52.6531 70.444 51.6209L68.6232 52.4485ZM69.172 54.6522C69.172 56.4751 68.1139 58.3877 65.5938 60.3794L66.8339 61.9485C69.5913 59.7693 71.172 57.3407 71.172 54.6522H69.172ZM65.596 60.3777C62.7472 62.616 58.7445 64.5488 53.5357 66.1451L54.1217 68.0573C59.4679 66.4189 63.722 64.3936 66.8317 61.9503L65.596 60.3777ZM53.5405 66.1436C49.1906 67.4528 45.8101 68.0803 43.3588 68.0803V70.0803C46.0998 70.0803 49.6994 69.3883 54.1169 68.0588L53.5405 66.1436ZM43.3588 68.0803C41.3087 68.0803 39.3685 67.7191 37.5306 66.9999L36.8018 68.8624C38.8795 69.6754 41.0676 70.0803 43.3588 70.0803V68.0803ZM37.5306 66.9999C35.6046 66.2462 34.2306 65.5393 33.3556 64.8925L32.1668 66.5009C33.2495 67.3011 34.8122 68.0838 36.8018 68.8624L37.5306 66.9999ZM33.3556 64.8925C32.4794 64.2449 32.2928 63.7602 32.2928 63.4622H30.2928C30.2928 64.6965 31.0852 65.7014 32.1668 66.5009L33.3556 64.8925ZM74.6409 44.3099L73.7124 44.6813L73.7223 44.7061L73.7335 44.7303L74.6409 44.3099ZM75.7262 41.2456L75.1015 40.4647L75.0812 40.4809L75.0618 40.4982L75.7262 41.2456ZM77.0668 40.7987L76.9763 41.7946L77.0215 41.7987H77.0668V40.7987ZM78.2798 41.6925L77.3854 42.1397L77.3922 42.1532L77.3993 42.1666L78.2798 41.6925ZM89.0051 61.6109L88.1246 62.085L88.9138 63.5506L89.8372 62.1656L89.0051 61.6109ZM90.6011 58.8019L89.7232 58.323L89.718 58.3327L90.6011 58.8019ZM93.1548 54.0776L92.2826 53.5884L92.278 53.5965L92.2736 53.6048L93.1548 54.0776ZM96.1553 48.6511L95.2811 48.1655L95.2774 48.1723L96.1553 48.6511ZM99.092 43.4162L99.9617 43.9098L99.9627 43.9079L99.092 43.4162ZM104.646 39.0111L103.775 39.5014L103.793 39.5344L103.814 39.5658L104.646 39.0111ZM105.285 41.1817L106.193 41.5989L106.285 41.4003V41.1817H105.285ZM98.6451 55.546L97.7387 55.1235L97.7353 55.1308L98.6451 55.546ZM94.6231 64.1007L93.7344 63.642L93.7287 63.6534L94.6231 64.1007ZM92.8994 67.165L93.7273 67.7259L93.7315 67.7197L92.8994 67.165ZM87.3452 67.165L86.5691 67.7956L86.574 67.8017L86.579 67.8076L87.3452 67.165ZM83.5786 61.7385L82.7226 62.2557L82.7297 62.2671L83.5786 61.7385ZM75.5694 43.9386C75.5366 43.8566 75.5132 43.7503 75.5132 43.6077H73.5132C73.5132 43.9758 73.5749 44.3377 73.7124 44.6813L75.5694 43.9386ZM75.5132 43.6077C75.5132 43.5206 75.5522 43.2916 75.7428 42.8724L73.922 42.0448C73.687 42.5618 73.5132 43.0989 73.5132 43.6077H75.5132ZM75.7428 42.8724C75.898 42.5309 76.1123 42.2403 76.3905 41.993L75.0618 40.4982C74.574 40.9318 74.1924 41.4499 73.922 42.0448L75.7428 42.8724ZM76.3509 42.0264C76.6094 41.8197 76.8063 41.7791 76.9763 41.7946L77.1574 39.8028C76.391 39.7331 75.6942 39.9905 75.1015 40.4647L76.3509 42.0264ZM77.0668 41.7987C77.1126 41.7987 77.1327 41.8071 77.1599 41.8272C77.2002 41.8568 77.285 41.9389 77.3854 42.1397L79.1742 41.2452C78.7677 40.4322 78.0755 39.7987 77.0668 39.7987V41.7987ZM77.3993 42.1666L88.1246 62.085L89.8856 61.1368L79.1603 41.2184L77.3993 42.1666ZM89.8372 62.1656C90.2086 61.6085 90.7615 60.6315 91.4842 59.271L89.718 58.3327C88.9937 59.6961 88.4826 60.5918 88.1731 61.0562L89.8372 62.1656ZM91.479 59.2807C92.2464 57.8738 93.0988 56.297 94.0359 54.5504L92.2736 53.6048C91.3381 55.3482 90.488 56.9209 89.7232 58.323L91.479 59.2807ZM94.0269 54.5669C95.0079 52.8182 96.01 51.0059 97.0332 49.13L95.2774 48.1723C94.2577 50.0417 93.2595 51.8471 92.2826 53.5884L94.0269 54.5669ZM97.0295 49.1368C98.0923 47.2237 99.0697 45.4814 99.9617 43.9098L98.2223 42.9226C97.3268 44.5004 96.3463 46.2481 95.2811 48.1655L97.0295 49.1368ZM99.9627 43.9079C100.981 42.1052 101.78 40.7753 102.364 39.9033C102.659 39.4635 102.882 39.1672 103.038 38.9905C103.075 38.9482 103.105 38.9173 103.127 38.8957C103.15 38.8734 103.159 38.8663 103.156 38.8684C103.156 38.8689 103.126 38.892 103.071 38.9178C103.019 38.942 102.899 38.9897 102.731 38.9897V36.9897C102.336 36.9897 102.049 37.1974 101.94 37.2805C101.793 37.393 101.658 37.5315 101.538 37.6672C101.295 37.9427 101.015 38.3246 100.703 38.7894C100.075 39.7262 99.2462 41.1094 98.2212 42.9244L99.9627 43.9079ZM102.731 38.9897C103.326 38.9897 103.597 39.1864 103.775 39.5014L105.518 38.5209C104.929 37.474 103.923 36.9897 102.731 36.9897V38.9897ZM103.814 39.5658C104.007 39.8551 104.133 40.0833 104.208 40.2558C104.287 40.4384 104.285 40.5021 104.285 40.4795H106.285C106.285 40.1164 106.175 39.7652 106.042 39.4583C105.904 39.1413 105.711 38.8056 105.478 38.4564L103.814 39.5658ZM104.285 40.4795C104.285 40.4801 104.285 40.4808 104.285 40.4815C104.285 40.4821 104.285 40.4828 104.285 40.4835C104.285 40.4841 104.285 40.4848 104.285 40.4855C104.285 40.4861 104.285 40.4868 104.285 40.4874C104.285 40.4881 104.285 40.4888 104.285 40.4894C104.285 40.4901 104.285 40.4907 104.285 40.4914C104.285 40.4921 104.285 40.4927 104.285 40.4934C104.285 40.494 104.285 40.4947 104.285 40.4954C104.285 40.496 104.285 40.4967 104.285 40.4973C104.285 40.498 104.285 40.4987 104.285 40.4993C104.285 40.5 104.285 40.5006 104.285 40.5013C104.285 40.5019 104.285 40.5026 104.285 40.5032C104.285 40.5039 104.285 40.5046 104.285 40.5052C104.285 40.5059 104.285 40.5065 104.285 40.5072C104.285 40.5078 104.285 40.5085 104.285 40.5091C104.285 40.5098 104.285 40.5104 104.285 40.5111C104.285 40.5117 104.285 40.5124 104.285 40.513C104.285 40.5137 104.285 40.5143 104.285 40.515C104.285 40.5156 104.285 40.5163 104.285 40.5169C104.285 40.5176 104.285 40.5182 104.285 40.5189C104.285 40.5195 104.285 40.5202 104.285 40.5208C104.285 40.5215 104.285 40.5221 104.285 40.5228C104.285 40.5234 104.285 40.5241 104.285 40.5247C104.285 40.5254 104.285 40.526 104.285 40.5267C104.285 40.5273 104.285 40.528 104.285 40.5286C104.285 40.5292 104.285 40.5299 104.285 40.5305C104.285 40.5312 104.285 40.5318 104.285 40.5325C104.285 40.5331 104.285 40.5337 104.285 40.5344C104.285 40.535 104.285 40.5357 104.285 40.5363C104.285 40.537 104.285 40.5376 104.285 40.5382C104.285 40.5389 104.285 40.5395 104.285 40.5402C104.285 40.5408 104.285 40.5414 104.285 40.5421C104.285 40.5427 104.285 40.5434 104.285 40.544C104.285 40.5446 104.285 40.5453 104.285 40.5459C104.285 40.5465 104.285 40.5472 104.285 40.5478C104.285 40.5485 104.285 40.5491 104.285 40.5497C104.285 40.5504 104.285 40.551 104.285 40.5516C104.285 40.5523 104.285 40.5529 104.285 40.5535C104.285 40.5542 104.285 40.5548 104.285 40.5554C104.285 40.5561 104.285 40.5567 104.285 40.5573C104.285 40.558 104.285 40.5586 104.285 40.5592C104.285 40.5599 104.285 40.5605 104.285 40.5611C104.285 40.5618 104.285 40.5624 104.285 40.563C104.285 40.5636 104.285 40.5643 104.285 40.5649C104.285 40.5655 104.285 40.5662 104.285 40.5668C104.285 40.5674 104.285 40.568 104.285 40.5687C104.285 40.5693 104.285 40.5699 104.285 40.5706C104.285 40.5712 104.285 40.5718 104.285 40.5724C104.285 40.5731 104.285 40.5737 104.285 40.5743C104.285 40.5749 104.285 40.5756 104.285 40.5762C104.285 40.5768 104.285 40.5774 104.285 40.5781C104.285 40.5787 104.285 40.5793 104.285 40.5799C104.285 40.5806 104.285 40.5812 104.285 40.5818C104.285 40.5824 104.285 40.583 104.285 40.5837C104.285 40.5843 104.285 40.5849 104.285 40.5855C104.285 40.5861 104.285 40.5868 104.285 40.5874C104.285 40.588 104.285 40.5886 104.285 40.5892C104.285 40.5899 104.285 40.5905 104.285 40.5911C104.285 40.5917 104.285 40.5923 104.285 40.5929C104.285 40.5936 104.285 40.5942 104.285 40.5948C104.285 40.5954 104.285 40.596 104.285 40.5966C104.285 40.5973 104.285 40.5979 104.285 40.5985C104.285 40.5991 104.285 40.5997 104.285 40.6003C104.285 40.6009 104.285 40.6016 104.285 40.6022C104.285 40.6028 104.285 40.6034 104.285 40.604C104.285 40.6046 104.285 40.6052 104.285 40.6058C104.285 40.6065 104.285 40.6071 104.285 40.6077C104.285 40.6083 104.285 40.6089 104.285 40.6095C104.285 40.6101 104.285 40.6107 104.285 40.6113C104.285 40.612 104.285 40.6126 104.285 40.6132C104.285 40.6138 104.285 40.6144 104.285 40.615C104.285 40.6156 104.285 40.6162 104.285 40.6168C104.285 40.6174 104.285 40.618 104.285 40.6186C104.285 40.6192 104.285 40.6198 104.285 40.6204C104.285 40.6211 104.285 40.6217 104.285 40.6223C104.285 40.6229 104.285 40.6235 104.285 40.6241C104.285 40.6247 104.285 40.6253 104.285 40.6259C104.285 40.6265 104.285 40.6271 104.285 40.6277C104.285 40.6283 104.285 40.6289 104.285 40.6295C104.285 40.6301 104.285 40.6307 104.285 40.6313C104.285 40.6319 104.285 40.6325 104.285 40.6331C104.285 40.6337 104.285 40.6343 104.285 40.6349C104.285 40.6355 104.285 40.6361 104.285 40.6367C104.285 40.6373 104.285 40.6379 104.285 40.6385C104.285 40.6391 104.285 40.6397 104.285 40.6403C104.285 40.6409 104.285 40.6415 104.285 40.642C104.285 40.6426 104.285 40.6432 104.285 40.6438C104.285 40.6444 104.285 40.645 104.285 40.6456C104.285 40.6462 104.285 40.6468 104.285 40.6474C104.285 40.648 104.285 40.6486 104.285 40.6492C104.285 40.6498 104.285 40.6504 104.285 40.6509C104.285 40.6515 104.285 40.6521 104.285 40.6527C104.285 40.6533 104.285 40.6539 104.285 40.6545C104.285 40.6551 104.285 40.6557 104.285 40.6563C104.285 40.6568 104.285 40.6574 104.285 40.658C104.285 40.6586 104.285 40.6592 104.285 40.6598C104.285 40.6604 104.285 40.661 104.285 40.6615C104.285 40.6621 104.285 40.6627 104.285 40.6633C104.285 40.6639 104.285 40.6645 104.285 40.6651C104.285 40.6656 104.285 40.6662 104.285 40.6668C104.285 40.6674 104.285 40.668 104.285 40.6686C104.285 40.6691 104.285 40.6697 104.285 40.6703C104.285 40.6709 104.285 40.6715 104.285 40.6721C104.285 40.6726 104.285 40.6732 104.285 40.6738C104.285 40.6744 104.285 40.675 104.285 40.6755C104.285 40.6761 104.285 40.6767 104.285 40.6773C104.285 40.6779 104.285 40.6784 104.285 40.679C104.285 40.6796 104.285 40.6802 104.285 40.6807C104.285 40.6813 104.285 40.6819 104.285 40.6825C104.285 40.683 104.285 40.6836 104.285 40.6842C104.285 40.6848 104.285 40.6854 104.285 40.6859C104.285 40.6865 104.285 40.6871 104.285 40.6877C104.285 40.6882 104.285 40.6888 104.285 40.6894C104.285 40.6899 104.285 40.6905 104.285 40.6911C104.285 40.6917 104.285 40.6922 104.285 40.6928C104.285 40.6934 104.285 40.6939 104.285 40.6945C104.285 40.6951 104.285 40.6957 104.285 40.6962C104.285 40.6968 104.285 40.6974 104.285 40.6979C104.285 40.6985 104.285 40.6991 104.285 40.6996C104.285 40.7002 104.285 40.7008 104.285 40.7014C104.285 40.7019 104.285 40.7025 104.285 40.7031C104.285 40.7036 104.285 40.7042 104.285 40.7048C104.285 40.7053 104.285 40.7059 104.285 40.7064C104.285 40.707 104.285 40.7076 104.285 40.7081C104.285 40.7087 104.285 40.7093 104.285 40.7098C104.285 40.7104 104.285 40.711 104.285 40.7115C104.285 40.7121 104.285 40.7126 104.285 40.7132C104.285 40.7138 104.285 40.7143 104.285 40.7149C104.285 40.7155 104.285 40.716 104.285 40.7166C104.285 40.7171 104.285 40.7177 104.285 40.7183C104.285 40.7188 104.285 40.7194 104.285 40.7199C104.285 40.7205 104.285 40.7211 104.285 40.7216C104.285 40.7222 104.285 40.7227 104.285 40.7233C104.285 40.7238 104.285 40.7244 104.285 40.725C104.285 40.7255 104.285 40.7261 104.285 40.7266C104.285 40.7272 104.285 40.7277 104.285 40.7283C104.285 40.7288 104.285 40.7294 104.285 40.7299C104.285 40.7305 104.285 40.7311 104.285 40.7316C104.285 40.7322 104.285 40.7327 104.285 40.7333C104.285 40.7338 104.285 40.7344 104.285 40.7349C104.285 40.7355 104.285 40.736 104.285 40.7366C104.285 40.7371 104.285 40.7377 104.285 40.7382C104.285 40.7388 104.285 40.7393 104.285 40.7399C104.285 40.7404 104.285 40.741 104.285 40.7415C104.285 40.7421 104.285 40.7426 104.285 40.7432C104.285 40.7437 104.285 40.7443 104.285 40.7448C104.285 40.7453 104.285 40.7459 104.285 40.7464C104.285 40.747 104.285 40.7475 104.285 40.7481C104.285 40.7486 104.285 40.7492 104.285 40.7497C104.285 40.7503 104.285 40.7508 104.285 40.7513C104.285 40.7519 104.285 40.7524 104.285 40.753C104.285 40.7535 104.285 40.7541 104.285 40.7546C104.285 40.7551 104.285 40.7557 104.285 40.7562C104.285 40.7568 104.285 40.7573 104.285 40.7578C104.285 40.7584 104.285 40.7589 104.285 40.7595C104.285 40.76 104.285 40.7605 104.285 40.7611C104.285 40.7616 104.285 40.7621 104.285 40.7627C104.285 40.7632 104.285 40.7638 104.285 40.7643C104.285 40.7648 104.285 40.7654 104.285 40.7659C104.285 40.7664 104.285 40.767 104.285 40.7675C104.285 40.768 104.285 40.7686 104.285 40.7691C104.285 40.7697 104.285 40.7702 104.285 40.7707C104.285 40.7713 104.285 40.7718 104.285 40.7723C104.285 40.7729 104.285 40.7734 104.285 40.7739C104.285 40.7744 104.285 40.775 104.285 40.7755C104.285 40.776 104.285 40.7766 104.285 40.7771C104.285 40.7776 104.285 40.7782 104.285 40.7787C104.285 40.7792 104.285 40.7798 104.285 40.7803C104.285 40.7808 104.285 40.7813 104.285 40.7819C104.285 40.7824 104.285 40.7829 104.285 40.7834C104.285 40.784 104.285 40.7845 104.285 40.785C104.285 40.7856 104.285 40.7861 104.285 40.7866C104.285 40.7871 104.285 40.7877 104.285 40.7882C104.285 40.7887 104.285 40.7892 104.285 40.7898C104.285 40.7903 104.285 40.7908 104.285 40.7913C104.285 40.7918 104.285 40.7924 104.285 40.7929C104.285 40.7934 104.285 40.7939 104.285 40.7945C104.285 40.795 104.285 40.7955 104.285 40.796C104.285 40.7965 104.285 40.7971 104.285 40.7976C104.285 40.7981 104.285 40.7986 104.285 40.7991C104.285 40.7997 104.285 40.8002 104.285 40.8007C104.285 40.8012 104.285 40.8017 104.285 40.8022C104.285 40.8028 104.285 40.8033 104.285 40.8038C104.285 40.8043 104.285 40.8048 104.285 40.8053C104.285 40.8059 104.285 40.8064 104.285 40.8069C104.285 40.8074 104.285 40.8079 104.285 40.8084C104.285 40.8089 104.285 40.8095 104.285 40.81C104.285 40.8105 104.285 40.811 104.285 40.8115C104.285 40.812 104.285 40.8125 104.285 40.813C104.285 40.8136 104.285 40.8141 104.285 40.8146C104.285 40.8151 104.285 40.8156 104.285 40.8161C104.285 40.8166 104.285 40.8171 104.285 40.8176C104.285 40.8181 104.285 40.8187 104.285 40.8192C104.285 40.8197 104.285 40.8202 104.285 40.8207C104.285 40.8212 104.285 40.8217 104.285 40.8222C104.285 40.8227 104.285 40.8232 104.285 40.8237C104.285 40.8242 104.285 40.8247 104.285 40.8252C104.285 40.8258 104.285 40.8263 104.285 40.8268C104.285 40.8273 104.285 40.8278 104.285 40.8283C104.285 40.8288 104.285 40.8293 104.285 40.8298C104.285 40.8303 104.285 40.8308 104.285 40.8313C104.285 40.8318 104.285 40.8323 104.285 40.8328C104.285 40.8333 104.285 40.8338 104.285 40.8343C104.285 40.8348 104.285 40.8353 104.285 40.8358C104.285 40.8363 104.285 40.8368 104.285 40.8373C104.285 40.8378 104.285 40.8383 104.285 40.8388C104.285 40.8393 104.285 40.8398 104.285 40.8403C104.285 40.8408 104.285 40.8413 104.285 40.8418C104.285 40.8423 104.285 40.8428 104.285 40.8433C104.285 40.8437 104.285 40.8442 104.285 40.8447C104.285 40.8452 104.285 40.8457 104.285 40.8462C104.285 40.8467 104.285 40.8472 104.285 40.8477C104.285 40.8482 104.285 40.8487 104.285 40.8492C104.285 40.8497 104.285 40.8502 104.285 40.8507C104.285 40.8511 104.285 40.8516 104.285 40.8521C104.285 40.8526 104.285 40.8531 104.285 40.8536C104.285 40.8541 104.285 40.8546 104.285 40.8551C104.285 40.8556 104.285 40.856 104.285 40.8565C104.285 40.857 104.285 40.8575 104.285 40.858C104.285 40.8585 104.285 40.859 104.285 40.8595C104.285 40.8599 104.285 40.8604 104.285 40.8609C104.285 40.8614 104.285 40.8619 104.285 40.8624C104.285 40.8629 104.285 40.8633 104.285 40.8638C104.285 40.8643 104.285 40.8648 104.285 40.8653C104.285 40.8658 104.285 40.8662 104.285 40.8667C104.285 40.8672 104.285 40.8677 104.285 40.8682C104.285 40.8686 104.285 40.8691 104.285 40.8696C104.285 40.8701 104.285 40.8706 104.285 40.871C104.285 40.8715 104.285 40.872 104.285 40.8725C104.285 40.873 104.285 40.8734 104.285 40.8739C104.285 40.8744 104.285 40.8749 104.285 40.8754C104.285 40.8758 104.285 40.8763 104.285 40.8768C104.285 40.8773 104.285 40.8777 104.285 40.8782C104.285 40.8787 104.285 40.8792 104.285 40.8796C104.285 40.8801 104.285 40.8806 104.285 40.8811C104.285 40.8815 104.285 40.882 104.285 40.8825C104.285 40.883 104.285 40.8834 104.285 40.8839C104.285 40.8844 104.285 40.8849 104.285 40.8853C104.285 40.8858 104.285 40.8863 104.285 40.8867C104.285 40.8872 104.285 40.8877 104.285 40.8882C104.285 40.8886 104.285 40.8891 104.285 40.8896C104.285 40.89 104.285 40.8905 104.285 40.891C104.285 40.8914 104.285 40.8919 104.285 40.8924C104.285 40.8928 104.285 40.8933 104.285 40.8938C104.285 40.8942 104.285 40.8947 104.285 40.8952C104.285 40.8956 104.285 40.8961 104.285 40.8966C104.285 40.897 104.285 40.8975 104.285 40.898C104.285 40.8984 104.285 40.8989 104.285 40.8994C104.285 40.8998 104.285 40.9003 104.285 40.9007C104.285 40.9012 104.285 40.9017 104.285 40.9021C104.285 40.9026 104.285 40.9031 104.285 40.9035C104.285 40.904 104.285 40.9044 104.285 40.9049C104.285 40.9054 104.285 40.9058 104.285 40.9063C104.285 40.9067 104.285 40.9072 104.285 40.9077C104.285 40.9081 104.285 40.9086 104.285 40.909C104.285 40.9095 104.285 40.91 104.285 40.9104C104.285 40.9109 104.285 40.9113 104.285 40.9118C104.285 40.9122 104.285 40.9127 104.285 40.9131C104.285 40.9136 104.285 40.9141 104.285 40.9145C104.285 40.915 104.285 40.9154 104.285 40.9159C104.285 40.9163 104.285 40.9168 104.285 40.9172C104.285 40.9177 104.285 40.9181 104.285 40.9186C104.285 40.919 104.285 40.9195 104.285 40.9199C104.285 40.9204 104.285 40.9209 104.285 40.9213C104.285 40.9218 104.285 40.9222 104.285 40.9227C104.285 40.9231 104.285 40.9236 104.285 40.924C104.285 40.9245 104.285 40.9249 104.285 40.9253C104.285 40.9258 104.285 40.9262 104.285 40.9267C104.285 40.9271 104.285 40.9276 104.285 40.928C104.285 40.9285 104.285 40.9289 104.285 40.9294C104.285 40.9298 104.285 40.9303 104.285 40.9307C104.285 40.9312 104.285 40.9316 104.285 40.932C104.285 40.9325 104.285 40.9329 104.285 40.9334C104.285 40.9338 104.285 40.9343 104.285 40.9347C104.285 40.9351 104.285 40.9356 104.285 40.936C104.285 40.9365 104.285 40.9369 104.285 40.9374C104.285 40.9378 104.285 40.9382 104.285 40.9387C104.285 40.9391 104.285 40.9396 104.285 40.94C104.285 40.9404 104.285 40.9409 104.285 40.9413C104.285 40.9417 104.285 40.9422 104.285 40.9426C104.285 40.9431 104.285 40.9435 104.285 40.9439C104.285 40.9444 104.285 40.9448 104.285 40.9452C104.285 40.9457 104.285 40.9461 104.285 40.9466C104.285 40.947 104.285 40.9474 104.285 40.9479C104.285 40.9483 104.285 40.9487 104.285 40.9492C104.285 40.9496 104.285 40.95 104.285 40.9505C104.285 40.9509 104.285 40.9513 104.285 40.9518C104.285 40.9522 104.285 40.9526 104.285 40.9531C104.285 40.9535 104.285 40.9539 104.285 40.9543C104.285 40.9548 104.285 40.9552 104.285 40.9556C104.285 40.9561 104.285 40.9565 104.285 40.9569C104.285 40.9574 104.285 40.9578 104.285 40.9582C104.285 40.9586 104.285 40.9591 104.285 40.9595C104.285 40.9599 104.285 40.9603 104.285 40.9608C104.285 40.9612 104.285 40.9616 104.285 40.962C104.285 40.9625 104.285 40.9629 104.285 40.9633C104.285 40.9637 104.285 40.9642 104.285 40.9646C104.285 40.965 104.285 40.9654 104.285 40.9659C104.285 40.9663 104.285 40.9667 104.285 40.9671C104.285 40.9676 104.285 40.968 104.285 40.9684C104.285 40.9688 104.285 40.9692 104.285 40.9697C104.285 40.9701 104.285 40.9705 104.285 40.9709C104.285 40.9713 104.285 40.9718 104.285 40.9722C104.285 40.9726 104.285 40.973 104.285 40.9734C104.285 40.9739 104.285 40.9743 104.285 40.9747C104.285 40.9751 104.285 40.9755 104.285 40.9759C104.285 40.9764 104.285 40.9768 104.285 40.9772C104.285 40.9776 104.285 40.978 104.285 40.9784C104.285 40.9789 104.285 40.9793 104.285 40.9797C104.285 40.9801 104.285 40.9805 104.285 40.9809C104.285 40.9813 104.285 40.9817 104.285 40.9822C104.285 40.9826 104.285 40.983 104.285 40.9834C104.285 40.9838 104.285 40.9842 104.285 40.9846C104.285 40.985 104.285 40.9855 104.285 40.9859C104.285 40.9863 104.285 40.9867 104.285 40.9871C104.285 40.9875 104.285 40.9879 104.285 40.9883C104.285 40.9887 104.285 40.9891 104.285 40.9895C104.285 40.99 104.285 40.9904 104.285 40.9908C104.285 40.9912 104.285 40.9916 104.285 40.992C104.285 40.9924 104.285 40.9928 104.285 40.9932C104.285 40.9936 104.285 40.994 104.285 40.9944C104.285 40.9948 104.285 40.9952 104.285 40.9956C104.285 40.996 104.285 40.9964 104.285 40.9968C104.285 40.9972 104.285 40.9976 104.285 40.998C104.285 40.9984 104.285 40.9988 104.285 40.9993C104.285 40.9997 104.285 41.0001 104.285 41.0005C104.285 41.0009 104.285 41.0013 104.285 41.0017C104.285 41.0021 104.285 41.0025 104.285 41.0028C104.285 41.0032 104.285 41.0036 104.285 41.004C104.285 41.0044 104.285 41.0048 104.285 41.0052C104.285 41.0056 104.285 41.006 104.285 41.0064C104.285 41.0068 104.285 41.0072 104.285 41.0076C104.285 41.008 104.285 41.0084 104.285 41.0088C104.285 41.0092 104.285 41.0096 104.285 41.01C104.285 41.0104 104.285 41.0108 104.285 41.0112C104.285 41.0116 104.285 41.0119 104.285 41.0123C104.285 41.0127 104.285 41.0131 104.285 41.0135C104.285 41.0139 104.285 41.0143 104.285 41.0147C104.285 41.0151 104.285 41.0155 104.285 41.0159C104.285 41.0163 104.285 41.0166 104.285 41.017C104.285 41.0174 104.285 41.0178 104.285 41.0182C104.285 41.0186 104.285 41.019 104.285 41.0194C104.285 41.0197 104.285 41.0201 104.285 41.0205C104.285 41.0209 104.285 41.0213 104.285 41.0217C104.285 41.0221 104.285 41.0224 104.285 41.0228C104.285 41.0232 104.285 41.0236 104.285 41.024C104.285 41.0244 104.285 41.0248 104.285 41.0251C104.285 41.0255 104.285 41.0259 104.285 41.0263C104.285 41.0267 104.285 41.0271 104.285 41.0274C104.285 41.0278 104.285 41.0282 104.285 41.0286C104.285 41.029 104.285 41.0293 104.285 41.0297C104.285 41.0301 104.285 41.0305 104.285 41.0309C104.285 41.0312 104.285 41.0316 104.285 41.032C104.285 41.0324 104.285 41.0328 104.285 41.0331C104.285 41.0335 104.285 41.0339 104.285 41.0343C104.285 41.0346 104.285 41.035 104.285 41.0354C104.285 41.0358 104.285 41.0361 104.285 41.0365C104.285 41.0369 104.285 41.0373 104.285 41.0376C104.285 41.038 104.285 41.0384 104.285 41.0388C104.285 41.0391 104.285 41.0395 104.285 41.0399C104.285 41.0403 104.285 41.0406 104.285 41.041C104.285 41.0414 104.285 41.0417 104.285 41.0421C104.285 41.0425 104.285 41.0429 104.285 41.0432C104.285 41.0436 104.285 41.044 104.285 41.0443C104.285 41.0447 104.285 41.0451 104.285 41.0454C104.285 41.0458 104.285 41.0462 104.285 41.0465C104.285 41.0469 104.285 41.0473 104.285 41.0477C104.285 41.048 104.285 41.0484 104.285 41.0488C104.285 41.0491 104.285 41.0495 104.285 41.0498C104.285 41.0502 104.285 41.0506 104.285 41.0509C104.285 41.0513 104.285 41.0517 104.285 41.052C104.285 41.0524 104.285 41.0528 104.285 41.0531C104.285 41.0535 104.285 41.0539 104.285 41.0542C104.285 41.0546 104.285 41.0549 104.285 41.0553C104.285 41.0557 104.285 41.056 104.285 41.0564C104.285 41.0567 104.285 41.0571 104.285 41.0575C104.285 41.0578 104.285 41.0582 104.285 41.0585C104.285 41.0589 104.285 41.0593 104.285 41.0596C104.285 41.06 104.285 41.0603 104.285 41.0607C104.285 41.061 104.285 41.0614 104.285 41.0618C104.285 41.0621 104.285 41.0625 104.285 41.0628C104.285 41.0632 104.285 41.0635 104.285 41.0639C104.285 41.0643 104.285 41.0646 104.285 41.065C104.285 41.0653 104.285 41.0657 104.285 41.066C104.285 41.0664 104.285 41.0667 104.285 41.0671C104.285 41.0674 104.285 41.0678 104.285 41.0681C104.285 41.0685 104.285 41.0688 104.285 41.0692C104.285 41.0695 104.285 41.0699 104.285 41.0702C104.285 41.0706 104.285 41.0709 104.285 41.0713C104.285 41.0716 104.285 41.072 104.285 41.0723C104.285 41.0727 104.285 41.073 104.285 41.0734C104.285 41.0737 104.285 41.0741 104.285 41.0744C104.285 41.0748 104.285 41.0751 104.285 41.0755C104.285 41.0758 104.285 41.0762 104.285 41.0765C104.285 41.0768 104.285 41.0772 104.285 41.0775C104.285 41.0779 104.285 41.0782 104.285 41.0786C104.285 41.0789 104.285 41.0793 104.285 41.0796C104.285 41.0799 104.285 41.0803 104.285 41.0806C104.285 41.081 104.285 41.0813 104.285 41.0816C104.285 41.082 104.285 41.0823 104.285 41.0827C104.285 41.083 104.285 41.0833 104.285 41.0837C104.285 41.084 104.285 41.0844 104.285 41.0847C104.285 41.085 104.285 41.0854 104.285 41.0857C104.285 41.0861 104.285 41.0864 104.285 41.0867C104.285 41.0871 104.285 41.0874 104.285 41.0877C104.285 41.0881 104.285 41.0884 104.285 41.0887C104.285 41.0891 104.285 41.0894 104.285 41.0898C104.285 41.0901 104.285 41.0904 104.285 41.0908C104.285 41.0911 104.285 41.0914 104.285 41.0918C104.285 41.0921 104.285 41.0924 104.285 41.0928C104.285 41.0931 104.285 41.0934 104.285 41.0937C104.285 41.0941 104.285 41.0944 104.285 41.0947C104.285 41.0951 104.285 41.0954 104.285 41.0957C104.285 41.0961 104.285 41.0964 104.285 41.0967C104.285 41.097 104.285 41.0974 104.285 41.0977C104.285 41.098 104.285 41.0984 104.285 41.0987C104.285 41.099 104.285 41.0993 104.285 41.0997C104.285 41.1 104.285 41.1003 104.285 41.1006C104.285 41.101 104.285 41.1013 104.285 41.1016C104.285 41.1019 104.285 41.1023 104.285 41.1026C104.285 41.1029 104.285 41.1032 104.285 41.1036C104.285 41.1039 104.285 41.1042 104.285 41.1045C104.285 41.1049 104.285 41.1052 104.285 41.1055C104.285 41.1058 104.285 41.1061 104.285 41.1065C104.285 41.1068 104.285 41.1071 104.285 41.1074C104.285 41.1077 104.285 41.1081 104.285 41.1084C104.285 41.1087 104.285 41.109 104.285 41.1093C104.285 41.1097 104.285 41.11 104.285 41.1103C104.285 41.1106 104.285 41.1109 104.285 41.1112C104.285 41.1116 104.285 41.1119 104.285 41.1122C104.285 41.1125 104.285 41.1128 104.285 41.1131C104.285 41.1135 104.285 41.1138 104.285 41.1141C104.285 41.1144 104.285 41.1147 104.285 41.115C104.285 41.1153 104.285 41.1157 104.285 41.116C104.285 41.1163 104.285 41.1166 104.285 41.1169C104.285 41.1172 104.285 41.1175 104.285 41.1178C104.285 41.1182 104.285 41.1185 104.285 41.1188C104.285 41.1191 104.285 41.1194 104.285 41.1197C104.285 41.12 104.285 41.1203 104.285 41.1206C104.285 41.1209 104.285 41.1212 104.285 41.1216C104.285 41.1219 104.285 41.1222 104.285 41.1225C104.285 41.1228 104.285 41.1231 104.285 41.1234C104.285 41.1237 104.285 41.124 104.285 41.1243C104.285 41.1246 104.285 41.1249 104.285 41.1252C104.285 41.1255 104.285 41.1258 104.285 41.1261C104.285 41.1264 104.285 41.1267 104.285 41.1271C104.285 41.1274 104.285 41.1277 104.285 41.128C104.285 41.1283 104.285 41.1286 104.285 41.1289C104.285 41.1292 104.285 41.1295 104.285 41.1298C104.285 41.1301 104.285 41.1304 104.285 41.1307C104.285 41.131 104.285 41.1313 104.285 41.1316C104.285 41.1319 104.285 41.1322 104.285 41.1325C104.285 41.1328 104.285 41.1331 104.285 41.1334C104.285 41.1337 104.285 41.1339 104.285 41.1342C104.285 41.1345 104.285 41.1348 104.285 41.1351C104.285 41.1354 104.285 41.1357 104.285 41.136C104.285 41.1363 104.285 41.1366 104.285 41.1369C104.285 41.1372 104.285 41.1375 104.285 41.1378C104.285 41.1381 104.285 41.1384 104.285 41.1387C104.285 41.139 104.285 41.1392 104.285 41.1395C104.285 41.1398 104.285 41.1401 104.285 41.1404C104.285 41.1407 104.285 41.141 104.285 41.1413C104.285 41.1416 104.285 41.1419 104.285 41.1422C104.285 41.1424 104.285 41.1427 104.285 41.143C104.285 41.1433 104.285 41.1436 104.285 41.1439C104.285 41.1442 104.285 41.1445 104.285 41.1447C104.285 41.145 104.285 41.1453 104.285 41.1456C104.285 41.1459 104.285 41.1462 104.285 41.1465C104.285 41.1467 104.285 41.147 104.285 41.1473C104.285 41.1476 104.285 41.1479 104.285 41.1482C104.285 41.1484 104.285 41.1487 104.285 41.149C104.285 41.1493 104.285 41.1496 104.285 41.1499C104.285 41.1501 104.285 41.1504 104.285 41.1507C104.285 41.151 104.285 41.1513 104.285 41.1515C104.285 41.1518 104.285 41.1521 104.285 41.1524C104.285 41.1527 104.285 41.1529 104.285 41.1532C104.285 41.1535 104.285 41.1538 104.285 41.1541C104.285 41.1543 104.285 41.1546 104.285 41.1549C104.285 41.1552 104.285 41.1554 104.285 41.1557C104.285 41.156 104.285 41.1563 104.285 41.1565C104.285 41.1568 104.285 41.1571 104.285 41.1574C104.285 41.1576 104.285 41.1579 104.285 41.1582C104.285 41.1585 104.285 41.1587 104.285 41.159C104.285 41.1593 104.285 41.1596 104.285 41.1598C104.285 41.1601 104.285 41.1604 104.285 41.1606C104.285 41.1609 104.285 41.1612 104.285 41.1615C104.285 41.1617 104.285 41.162 104.285 41.1623C104.285 41.1625 104.285 41.1628 104.285 41.1631C104.285 41.1633 104.285 41.1636 104.285 41.1639C104.285 41.1641 104.285 41.1644 104.285 41.1647C104.285 41.165 104.285 41.1652 104.285 41.1655C104.285 41.1658 104.285 41.166 104.285 41.1663C104.285 41.1665 104.285 41.1668 104.285 41.1671C104.285 41.1673 104.285 41.1676 104.285 41.1679C104.285 41.1681 104.285 41.1684 104.285 41.1687C104.285 41.1689 104.285 41.1692 104.285 41.1695C104.285 41.1697 104.285 41.17 104.285 41.1702C104.285 41.1705 104.285 41.1708 104.285 41.171C104.285 41.1713 104.285 41.1715 104.285 41.1718C104.285 41.1721 104.285 41.1723 104.285 41.1726C104.285 41.1728 104.285 41.1731 104.285 41.1734C104.285 41.1736 104.285 41.1739 104.285 41.1741C104.285 41.1744 104.285 41.1746 104.285 41.1749C104.285 41.1752 104.285 41.1754 104.285 41.1757C104.285 41.1759 104.285 41.1762 104.285 41.1764C104.285 41.1767 104.285 41.1769 104.285 41.1772C104.285 41.1775 104.285 41.1777 104.285 41.178C104.285 41.1782 104.285 41.1785 104.285 41.1787C104.285 41.179 104.285 41.1792 104.285 41.1795C104.285 41.1797 104.285 41.18 104.285 41.1802C104.285 41.1805 104.285 41.1807 104.285 41.181C104.285 41.1812 104.285 41.1815 104.285 41.1817H106.285C106.285 41.1815 106.285 41.1812 106.285 41.181C106.285 41.1807 106.285 41.1805 106.285 41.1802C106.285 41.18 106.285 41.1797 106.285 41.1795C106.285 41.1792 106.285 41.179 106.285 41.1787C106.285 41.1785 106.285 41.1782 106.285 41.178C106.285 41.1777 106.285 41.1775 106.285 41.1772C106.285 41.1769 106.285 41.1767 106.285 41.1764C106.285 41.1762 106.285 41.1759 106.285 41.1757C106.285 41.1754 106.285 41.1752 106.285 41.1749C106.285 41.1746 106.285 41.1744 106.285 41.1741C106.285 41.1739 106.285 41.1736 106.285 41.1734C106.285 41.1731 106.285 41.1728 106.285 41.1726C106.285 41.1723 106.285 41.1721 106.285 41.1718C106.285 41.1715 106.285 41.1713 106.285 41.171C106.285 41.1708 106.285 41.1705 106.285 41.1702C106.285 41.17 106.285 41.1697 106.285 41.1695C106.285 41.1692 106.285 41.1689 106.285 41.1687C106.285 41.1684 106.285 41.1681 106.285 41.1679C106.285 41.1676 106.285 41.1673 106.285 41.1671C106.285 41.1668 106.285 41.1665 106.285 41.1663C106.285 41.166 106.285 41.1658 106.285 41.1655C106.285 41.1652 106.285 41.165 106.285 41.1647C106.285 41.1644 106.285 41.1641 106.285 41.1639C106.285 41.1636 106.285 41.1633 106.285 41.1631C106.285 41.1628 106.285 41.1625 106.285 41.1623C106.285 41.162 106.285 41.1617 106.285 41.1615C106.285 41.1612 106.285 41.1609 106.285 41.1606C106.285 41.1604 106.285 41.1601 106.285 41.1598C106.285 41.1596 106.285 41.1593 106.285 41.159C106.285 41.1587 106.285 41.1585 106.285 41.1582C106.285 41.1579 106.285 41.1576 106.285 41.1574C106.285 41.1571 106.285 41.1568 106.285 41.1565C106.285 41.1563 106.285 41.156 106.285 41.1557C106.285 41.1554 106.285 41.1552 106.285 41.1549C106.285 41.1546 106.285 41.1543 106.285 41.1541C106.285 41.1538 106.285 41.1535 106.285 41.1532C106.285 41.1529 106.285 41.1527 106.285 41.1524C106.285 41.1521 106.285 41.1518 106.285 41.1515C106.285 41.1513 106.285 41.151 106.285 41.1507C106.285 41.1504 106.285 41.1501 106.285 41.1499C106.285 41.1496 106.285 41.1493 106.285 41.149C106.285 41.1487 106.285 41.1484 106.285 41.1482C106.285 41.1479 106.285 41.1476 106.285 41.1473C106.285 41.147 106.285 41.1467 106.285 41.1465C106.285 41.1462 106.285 41.1459 106.285 41.1456C106.285 41.1453 106.285 41.145 106.285 41.1447C106.285 41.1445 106.285 41.1442 106.285 41.1439C106.285 41.1436 106.285 41.1433 106.285 41.143C106.285 41.1427 106.285 41.1424 106.285 41.1422C106.285 41.1419 106.285 41.1416 106.285 41.1413C106.285 41.141 106.285 41.1407 106.285 41.1404C106.285 41.1401 106.285 41.1398 106.285 41.1395C106.285 41.1392 106.285 41.139 106.285 41.1387C106.285 41.1384 106.285 41.1381 106.285 41.1378C106.285 41.1375 106.285 41.1372 106.285 41.1369C106.285 41.1366 106.285 41.1363 106.285 41.136C106.285 41.1357 106.285 41.1354 106.285 41.1351C106.285 41.1348 106.285 41.1345 106.285 41.1342C106.285 41.1339 106.285 41.1337 106.285 41.1334C106.285 41.1331 106.285 41.1328 106.285 41.1325C106.285 41.1322 106.285 41.1319 106.285 41.1316C106.285 41.1313 106.285 41.131 106.285 41.1307C106.285 41.1304 106.285 41.1301 106.285 41.1298C106.285 41.1295 106.285 41.1292 106.285 41.1289C106.285 41.1286 106.285 41.1283 106.285 41.128C106.285 41.1277 106.285 41.1274 106.285 41.1271C106.285 41.1267 106.285 41.1264 106.285 41.1261C106.285 41.1258 106.285 41.1255 106.285 41.1252C106.285 41.1249 106.285 41.1246 106.285 41.1243C106.285 41.124 106.285 41.1237 106.285 41.1234C106.285 41.1231 106.285 41.1228 106.285 41.1225C106.285 41.1222 106.285 41.1219 106.285 41.1216C106.285 41.1212 106.285 41.1209 106.285 41.1206C106.285 41.1203 106.285 41.12 106.285 41.1197C106.285 41.1194 106.285 41.1191 106.285 41.1188C106.285 41.1185 106.285 41.1182 106.285 41.1178C106.285 41.1175 106.285 41.1172 106.285 41.1169C106.285 41.1166 106.285 41.1163 106.285 41.116C106.285 41.1157 106.285 41.1153 106.285 41.115C106.285 41.1147 106.285 41.1144 106.285 41.1141C106.285 41.1138 106.285 41.1135 106.285 41.1131C106.285 41.1128 106.285 41.1125 106.285 41.1122C106.285 41.1119 106.285 41.1116 106.285 41.1112C106.285 41.1109 106.285 41.1106 106.285 41.1103C106.285 41.11 106.285 41.1097 106.285 41.1093C106.285 41.109 106.285 41.1087 106.285 41.1084C106.285 41.1081 106.285 41.1077 106.285 41.1074C106.285 41.1071 106.285 41.1068 106.285 41.1065C106.285 41.1061 106.285 41.1058 106.285 41.1055C106.285 41.1052 106.285 41.1049 106.285 41.1045C106.285 41.1042 106.285 41.1039 106.285 41.1036C106.285 41.1032 106.285 41.1029 106.285 41.1026C106.285 41.1023 106.285 41.1019 106.285 41.1016C106.285 41.1013 106.285 41.101 106.285 41.1006C106.285 41.1003 106.285 41.1 106.285 41.0997C106.285 41.0993 106.285 41.099 106.285 41.0987C106.285 41.0984 106.285 41.098 106.285 41.0977C106.285 41.0974 106.285 41.097 106.285 41.0967C106.285 41.0964 106.285 41.0961 106.285 41.0957C106.285 41.0954 106.285 41.0951 106.285 41.0947C106.285 41.0944 106.285 41.0941 106.285 41.0937C106.285 41.0934 106.285 41.0931 106.285 41.0928C106.285 41.0924 106.285 41.0921 106.285 41.0918C106.285 41.0914 106.285 41.0911 106.285 41.0908C106.285 41.0904 106.285 41.0901 106.285 41.0898C106.285 41.0894 106.285 41.0891 106.285 41.0887C106.285 41.0884 106.285 41.0881 106.285 41.0877C106.285 41.0874 106.285 41.0871 106.285 41.0867C106.285 41.0864 106.285 41.0861 106.285 41.0857C106.285 41.0854 106.285 41.085 106.285 41.0847C106.285 41.0844 106.285 41.084 106.285 41.0837C106.285 41.0833 106.285 41.083 106.285 41.0827C106.285 41.0823 106.285 41.082 106.285 41.0816C106.285 41.0813 106.285 41.081 106.285 41.0806C106.285 41.0803 106.285 41.0799 106.285 41.0796C106.285 41.0793 106.285 41.0789 106.285 41.0786C106.285 41.0782 106.285 41.0779 106.285 41.0775C106.285 41.0772 106.285 41.0768 106.285 41.0765C106.285 41.0762 106.285 41.0758 106.285 41.0755C106.285 41.0751 106.285 41.0748 106.285 41.0744C106.285 41.0741 106.285 41.0737 106.285 41.0734C106.285 41.073 106.285 41.0727 106.285 41.0723C106.285 41.072 106.285 41.0716 106.285 41.0713C106.285 41.0709 106.285 41.0706 106.285 41.0702C106.285 41.0699 106.285 41.0695 106.285 41.0692C106.285 41.0688 106.285 41.0685 106.285 41.0681C106.285 41.0678 106.285 41.0674 106.285 41.0671C106.285 41.0667 106.285 41.0664 106.285 41.066C106.285 41.0657 106.285 41.0653 106.285 41.065C106.285 41.0646 106.285 41.0643 106.285 41.0639C106.285 41.0635 106.285 41.0632 106.285 41.0628C106.285 41.0625 106.285 41.0621 106.285 41.0618C106.285 41.0614 106.285 41.061 106.285 41.0607C106.285 41.0603 106.285 41.06 106.285 41.0596C106.285 41.0593 106.285 41.0589 106.285 41.0585C106.285 41.0582 106.285 41.0578 106.285 41.0575C106.285 41.0571 106.285 41.0567 106.285 41.0564C106.285 41.056 106.285 41.0557 106.285 41.0553C106.285 41.0549 106.285 41.0546 106.285 41.0542C106.285 41.0539 106.285 41.0535 106.285 41.0531C106.285 41.0528 106.285 41.0524 106.285 41.052C106.285 41.0517 106.285 41.0513 106.285 41.0509C106.285 41.0506 106.285 41.0502 106.285 41.0498C106.285 41.0495 106.285 41.0491 106.285 41.0488C106.285 41.0484 106.285 41.048 106.285 41.0477C106.285 41.0473 106.285 41.0469 106.285 41.0465C106.285 41.0462 106.285 41.0458 106.285 41.0454C106.285 41.0451 106.285 41.0447 106.285 41.0443C106.285 41.044 106.285 41.0436 106.285 41.0432C106.285 41.0429 106.285 41.0425 106.285 41.0421C106.285 41.0417 106.285 41.0414 106.285 41.041C106.285 41.0406 106.285 41.0403 106.285 41.0399C106.285 41.0395 106.285 41.0391 106.285 41.0388C106.285 41.0384 106.285 41.038 106.285 41.0376C106.285 41.0373 106.285 41.0369 106.285 41.0365C106.285 41.0361 106.285 41.0358 106.285 41.0354C106.285 41.035 106.285 41.0346 106.285 41.0343C106.285 41.0339 106.285 41.0335 106.285 41.0331C106.285 41.0328 106.285 41.0324 106.285 41.032C106.285 41.0316 106.285 41.0312 106.285 41.0309C106.285 41.0305 106.285 41.0301 106.285 41.0297C106.285 41.0293 106.285 41.029 106.285 41.0286C106.285 41.0282 106.285 41.0278 106.285 41.0274C106.285 41.0271 106.285 41.0267 106.285 41.0263C106.285 41.0259 106.285 41.0255 106.285 41.0251C106.285 41.0248 106.285 41.0244 106.285 41.024C106.285 41.0236 106.285 41.0232 106.285 41.0228C106.285 41.0224 106.285 41.0221 106.285 41.0217C106.285 41.0213 106.285 41.0209 106.285 41.0205C106.285 41.0201 106.285 41.0197 106.285 41.0194C106.285 41.019 106.285 41.0186 106.285 41.0182C106.285 41.0178 106.285 41.0174 106.285 41.017C106.285 41.0166 106.285 41.0163 106.285 41.0159C106.285 41.0155 106.285 41.0151 106.285 41.0147C106.285 41.0143 106.285 41.0139 106.285 41.0135C106.285 41.0131 106.285 41.0127 106.285 41.0123C106.285 41.0119 106.285 41.0116 106.285 41.0112C106.285 41.0108 106.285 41.0104 106.285 41.01C106.285 41.0096 106.285 41.0092 106.285 41.0088C106.285 41.0084 106.285 41.008 106.285 41.0076C106.285 41.0072 106.285 41.0068 106.285 41.0064C106.285 41.006 106.285 41.0056 106.285 41.0052C106.285 41.0048 106.285 41.0044 106.285 41.004C106.285 41.0036 106.285 41.0032 106.285 41.0028C106.285 41.0025 106.285 41.0021 106.285 41.0017C106.285 41.0013 106.285 41.0009 106.285 41.0005C106.285 41.0001 106.285 40.9997 106.285 40.9993C106.285 40.9988 106.285 40.9984 106.285 40.998C106.285 40.9976 106.285 40.9972 106.285 40.9968C106.285 40.9964 106.285 40.996 106.285 40.9956C106.285 40.9952 106.285 40.9948 106.285 40.9944C106.285 40.994 106.285 40.9936 106.285 40.9932C106.285 40.9928 106.285 40.9924 106.285 40.992C106.285 40.9916 106.285 40.9912 106.285 40.9908C106.285 40.9904 106.285 40.99 106.285 40.9895C106.285 40.9891 106.285 40.9887 106.285 40.9883C106.285 40.9879 106.285 40.9875 106.285 40.9871C106.285 40.9867 106.285 40.9863 106.285 40.9859C106.285 40.9855 106.285 40.985 106.285 40.9846C106.285 40.9842 106.285 40.9838 106.285 40.9834C106.285 40.983 106.285 40.9826 106.285 40.9822C106.285 40.9817 106.285 40.9813 106.285 40.9809C106.285 40.9805 106.285 40.9801 106.285 40.9797C106.285 40.9793 106.285 40.9789 106.285 40.9784C106.285 40.978 106.285 40.9776 106.285 40.9772C106.285 40.9768 106.285 40.9764 106.285 40.9759C106.285 40.9755 106.285 40.9751 106.285 40.9747C106.285 40.9743 106.285 40.9739 106.285 40.9734C106.285 40.973 106.285 40.9726 106.285 40.9722C106.285 40.9718 106.285 40.9713 106.285 40.9709C106.285 40.9705 106.285 40.9701 106.285 40.9697C106.285 40.9692 106.285 40.9688 106.285 40.9684C106.285 40.968 106.285 40.9676 106.285 40.9671C106.285 40.9667 106.285 40.9663 106.285 40.9659C106.285 40.9654 106.285 40.965 106.285 40.9646C106.285 40.9642 106.285 40.9637 106.285 40.9633C106.285 40.9629 106.285 40.9625 106.285 40.962C106.285 40.9616 106.285 40.9612 106.285 40.9608C106.285 40.9603 106.285 40.9599 106.285 40.9595C106.285 40.9591 106.285 40.9586 106.285 40.9582C106.285 40.9578 106.285 40.9574 106.285 40.9569C106.285 40.9565 106.285 40.9561 106.285 40.9556C106.285 40.9552 106.285 40.9548 106.285 40.9543C106.285 40.9539 106.285 40.9535 106.285 40.9531C106.285 40.9526 106.285 40.9522 106.285 40.9518C106.285 40.9513 106.285 40.9509 106.285 40.9505C106.285 40.95 106.285 40.9496 106.285 40.9492C106.285 40.9487 106.285 40.9483 106.285 40.9479C106.285 40.9474 106.285 40.947 106.285 40.9466C106.285 40.9461 106.285 40.9457 106.285 40.9452C106.285 40.9448 106.285 40.9444 106.285 40.9439C106.285 40.9435 106.285 40.9431 106.285 40.9426C106.285 40.9422 106.285 40.9417 106.285 40.9413C106.285 40.9409 106.285 40.9404 106.285 40.94C106.285 40.9396 106.285 40.9391 106.285 40.9387C106.285 40.9382 106.285 40.9378 106.285 40.9374C106.285 40.9369 106.285 40.9365 106.285 40.936C106.285 40.9356 106.285 40.9351 106.285 40.9347C106.285 40.9343 106.285 40.9338 106.285 40.9334C106.285 40.9329 106.285 40.9325 106.285 40.932C106.285 40.9316 106.285 40.9312 106.285 40.9307C106.285 40.9303 106.285 40.9298 106.285 40.9294C106.285 40.9289 106.285 40.9285 106.285 40.928C106.285 40.9276 106.285 40.9271 106.285 40.9267C106.285 40.9262 106.285 40.9258 106.285 40.9253C106.285 40.9249 106.285 40.9245 106.285 40.924C106.285 40.9236 106.285 40.9231 106.285 40.9227C106.285 40.9222 106.285 40.9218 106.285 40.9213C106.285 40.9209 106.285 40.9204 106.285 40.9199C106.285 40.9195 106.285 40.919 106.285 40.9186C106.285 40.9181 106.285 40.9177 106.285 40.9172C106.285 40.9168 106.285 40.9163 106.285 40.9159C106.285 40.9154 106.285 40.915 106.285 40.9145C106.285 40.9141 106.285 40.9136 106.285 40.9131C106.285 40.9127 106.285 40.9122 106.285 40.9118C106.285 40.9113 106.285 40.9109 106.285 40.9104C106.285 40.91 106.285 40.9095 106.285 40.909C106.285 40.9086 106.285 40.9081 106.285 40.9077C106.285 40.9072 106.285 40.9067 106.285 40.9063C106.285 40.9058 106.285 40.9054 106.285 40.9049C106.285 40.9044 106.285 40.904 106.285 40.9035C106.285 40.9031 106.285 40.9026 106.285 40.9021C106.285 40.9017 106.285 40.9012 106.285 40.9007C106.285 40.9003 106.285 40.8998 106.285 40.8994C106.285 40.8989 106.285 40.8984 106.285 40.898C106.285 40.8975 106.285 40.897 106.285 40.8966C106.285 40.8961 106.285 40.8956 106.285 40.8952C106.285 40.8947 106.285 40.8942 106.285 40.8938C106.285 40.8933 106.285 40.8928 106.285 40.8924C106.285 40.8919 106.285 40.8914 106.285 40.891C106.285 40.8905 106.285 40.89 106.285 40.8896C106.285 40.8891 106.285 40.8886 106.285 40.8882C106.285 40.8877 106.285 40.8872 106.285 40.8867C106.285 40.8863 106.285 40.8858 106.285 40.8853C106.285 40.8849 106.285 40.8844 106.285 40.8839C106.285 40.8834 106.285 40.883 106.285 40.8825C106.285 40.882 106.285 40.8815 106.285 40.8811C106.285 40.8806 106.285 40.8801 106.285 40.8796C106.285 40.8792 106.285 40.8787 106.285 40.8782C106.285 40.8777 106.285 40.8773 106.285 40.8768C106.285 40.8763 106.285 40.8758 106.285 40.8754C106.285 40.8749 106.285 40.8744 106.285 40.8739C106.285 40.8734 106.285 40.873 106.285 40.8725C106.285 40.872 106.285 40.8715 106.285 40.871C106.285 40.8706 106.285 40.8701 106.285 40.8696C106.285 40.8691 106.285 40.8686 106.285 40.8682C106.285 40.8677 106.285 40.8672 106.285 40.8667C106.285 40.8662 106.285 40.8658 106.285 40.8653C106.285 40.8648 106.285 40.8643 106.285 40.8638C106.285 40.8633 106.285 40.8629 106.285 40.8624C106.285 40.8619 106.285 40.8614 106.285 40.8609C106.285 40.8604 106.285 40.8599 106.285 40.8595C106.285 40.859 106.285 40.8585 106.285 40.858C106.285 40.8575 106.285 40.857 106.285 40.8565C106.285 40.856 106.285 40.8556 106.285 40.8551C106.285 40.8546 106.285 40.8541 106.285 40.8536C106.285 40.8531 106.285 40.8526 106.285 40.8521C106.285 40.8516 106.285 40.8511 106.285 40.8507C106.285 40.8502 106.285 40.8497 106.285 40.8492C106.285 40.8487 106.285 40.8482 106.285 40.8477C106.285 40.8472 106.285 40.8467 106.285 40.8462C106.285 40.8457 106.285 40.8452 106.285 40.8447C106.285 40.8442 106.285 40.8437 106.285 40.8433C106.285 40.8428 106.285 40.8423 106.285 40.8418C106.285 40.8413 106.285 40.8408 106.285 40.8403C106.285 40.8398 106.285 40.8393 106.285 40.8388C106.285 40.8383 106.285 40.8378 106.285 40.8373C106.285 40.8368 106.285 40.8363 106.285 40.8358C106.285 40.8353 106.285 40.8348 106.285 40.8343C106.285 40.8338 106.285 40.8333 106.285 40.8328C106.285 40.8323 106.285 40.8318 106.285 40.8313C106.285 40.8308 106.285 40.8303 106.285 40.8298C106.285 40.8293 106.285 40.8288 106.285 40.8283C106.285 40.8278 106.285 40.8273 106.285 40.8268C106.285 40.8263 106.285 40.8258 106.285 40.8252C106.285 40.8247 106.285 40.8242 106.285 40.8237C106.285 40.8232 106.285 40.8227 106.285 40.8222C106.285 40.8217 106.285 40.8212 106.285 40.8207C106.285 40.8202 106.285 40.8197 106.285 40.8192C106.285 40.8187 106.285 40.8181 106.285 40.8176C106.285 40.8171 106.285 40.8166 106.285 40.8161C106.285 40.8156 106.285 40.8151 106.285 40.8146C106.285 40.8141 106.285 40.8136 106.285 40.813C106.285 40.8125 106.285 40.812 106.285 40.8115C106.285 40.811 106.285 40.8105 106.285 40.81C106.285 40.8095 106.285 40.8089 106.285 40.8084C106.285 40.8079 106.285 40.8074 106.285 40.8069C106.285 40.8064 106.285 40.8059 106.285 40.8053C106.285 40.8048 106.285 40.8043 106.285 40.8038C106.285 40.8033 106.285 40.8028 106.285 40.8022C106.285 40.8017 106.285 40.8012 106.285 40.8007C106.285 40.8002 106.285 40.7997 106.285 40.7991C106.285 40.7986 106.285 40.7981 106.285 40.7976C106.285 40.7971 106.285 40.7965 106.285 40.796C106.285 40.7955 106.285 40.795 106.285 40.7945C106.285 40.7939 106.285 40.7934 106.285 40.7929C106.285 40.7924 106.285 40.7918 106.285 40.7913C106.285 40.7908 106.285 40.7903 106.285 40.7898C106.285 40.7892 106.285 40.7887 106.285 40.7882C106.285 40.7877 106.285 40.7871 106.285 40.7866C106.285 40.7861 106.285 40.7856 106.285 40.785C106.285 40.7845 106.285 40.784 106.285 40.7834C106.285 40.7829 106.285 40.7824 106.285 40.7819C106.285 40.7813 106.285 40.7808 106.285 40.7803C106.285 40.7798 106.285 40.7792 106.285 40.7787C106.285 40.7782 106.285 40.7776 106.285 40.7771C106.285 40.7766 106.285 40.776 106.285 40.7755C106.285 40.775 106.285 40.7744 106.285 40.7739C106.285 40.7734 106.285 40.7729 106.285 40.7723C106.285 40.7718 106.285 40.7713 106.285 40.7707C106.285 40.7702 106.285 40.7697 106.285 40.7691C106.285 40.7686 106.285 40.768 106.285 40.7675C106.285 40.767 106.285 40.7664 106.285 40.7659C106.285 40.7654 106.285 40.7648 106.285 40.7643C106.285 40.7638 106.285 40.7632 106.285 40.7627C106.285 40.7621 106.285 40.7616 106.285 40.7611C106.285 40.7605 106.285 40.76 106.285 40.7595C106.285 40.7589 106.285 40.7584 106.285 40.7578C106.285 40.7573 106.285 40.7568 106.285 40.7562C106.285 40.7557 106.285 40.7551 106.285 40.7546C106.285 40.7541 106.285 40.7535 106.285 40.753C106.285 40.7524 106.285 40.7519 106.285 40.7513C106.285 40.7508 106.285 40.7503 106.285 40.7497C106.285 40.7492 106.285 40.7486 106.285 40.7481C106.285 40.7475 106.285 40.747 106.285 40.7464C106.285 40.7459 106.285 40.7453 106.285 40.7448C106.285 40.7443 106.285 40.7437 106.285 40.7432C106.285 40.7426 106.285 40.7421 106.285 40.7415C106.285 40.741 106.285 40.7404 106.285 40.7399C106.285 40.7393 106.285 40.7388 106.285 40.7382C106.285 40.7377 106.285 40.7371 106.285 40.7366C106.285 40.736 106.285 40.7355 106.285 40.7349C106.285 40.7344 106.285 40.7338 106.285 40.7333C106.285 40.7327 106.285 40.7322 106.285 40.7316C106.285 40.7311 106.285 40.7305 106.285 40.7299C106.285 40.7294 106.285 40.7288 106.285 40.7283C106.285 40.7277 106.285 40.7272 106.285 40.7266C106.285 40.7261 106.285 40.7255 106.285 40.725C106.285 40.7244 106.285 40.7238 106.285 40.7233C106.285 40.7227 106.285 40.7222 106.285 40.7216C106.285 40.7211 106.285 40.7205 106.285 40.7199C106.285 40.7194 106.285 40.7188 106.285 40.7183C106.285 40.7177 106.285 40.7171 106.285 40.7166C106.285 40.716 106.285 40.7155 106.285 40.7149C106.285 40.7143 106.285 40.7138 106.285 40.7132C106.285 40.7126 106.285 40.7121 106.285 40.7115C106.285 40.711 106.285 40.7104 106.285 40.7098C106.285 40.7093 106.285 40.7087 106.285 40.7081C106.285 40.7076 106.285 40.707 106.285 40.7064C106.285 40.7059 106.285 40.7053 106.285 40.7048C106.285 40.7042 106.285 40.7036 106.285 40.7031C106.285 40.7025 106.285 40.7019 106.285 40.7014C106.285 40.7008 106.285 40.7002 106.285 40.6996C106.285 40.6991 106.285 40.6985 106.285 40.6979C106.285 40.6974 106.285 40.6968 106.285 40.6962C106.285 40.6957 106.285 40.6951 106.285 40.6945C106.285 40.6939 106.285 40.6934 106.285 40.6928C106.285 40.6922 106.285 40.6917 106.285 40.6911C106.285 40.6905 106.285 40.6899 106.285 40.6894C106.285 40.6888 106.285 40.6882 106.285 40.6877C106.285 40.6871 106.285 40.6865 106.285 40.6859C106.285 40.6854 106.285 40.6848 106.285 40.6842C106.285 40.6836 106.285 40.683 106.285 40.6825C106.285 40.6819 106.285 40.6813 106.285 40.6807C106.285 40.6802 106.285 40.6796 106.285 40.679C106.285 40.6784 106.285 40.6779 106.285 40.6773C106.285 40.6767 106.285 40.6761 106.285 40.6755C106.285 40.675 106.285 40.6744 106.285 40.6738C106.285 40.6732 106.285 40.6726 106.285 40.6721C106.285 40.6715 106.285 40.6709 106.285 40.6703C106.285 40.6697 106.285 40.6691 106.285 40.6686C106.285 40.668 106.285 40.6674 106.285 40.6668C106.285 40.6662 106.285 40.6656 106.285 40.6651C106.285 40.6645 106.285 40.6639 106.285 40.6633C106.285 40.6627 106.285 40.6621 106.285 40.6615C106.285 40.661 106.285 40.6604 106.285 40.6598C106.285 40.6592 106.285 40.6586 106.285 40.658C106.285 40.6574 106.285 40.6568 106.285 40.6563C106.285 40.6557 106.285 40.6551 106.285 40.6545C106.285 40.6539 106.285 40.6533 106.285 40.6527C106.285 40.6521 106.285 40.6515 106.285 40.6509C106.285 40.6504 106.285 40.6498 106.285 40.6492C106.285 40.6486 106.285 40.648 106.285 40.6474C106.285 40.6468 106.285 40.6462 106.285 40.6456C106.285 40.645 106.285 40.6444 106.285 40.6438C106.285 40.6432 106.285 40.6426 106.285 40.642C106.285 40.6415 106.285 40.6409 106.285 40.6403C106.285 40.6397 106.285 40.6391 106.285 40.6385C106.285 40.6379 106.285 40.6373 106.285 40.6367C106.285 40.6361 106.285 40.6355 106.285 40.6349C106.285 40.6343 106.285 40.6337 106.285 40.6331C106.285 40.6325 106.285 40.6319 106.285 40.6313C106.285 40.6307 106.285 40.6301 106.285 40.6295C106.285 40.6289 106.285 40.6283 106.285 40.6277C106.285 40.6271 106.285 40.6265 106.285 40.6259C106.285 40.6253 106.285 40.6247 106.285 40.6241C106.285 40.6235 106.285 40.6229 106.285 40.6223C106.285 40.6217 106.285 40.6211 106.285 40.6204C106.285 40.6198 106.285 40.6192 106.285 40.6186C106.285 40.618 106.285 40.6174 106.285 40.6168C106.285 40.6162 106.285 40.6156 106.285 40.615C106.285 40.6144 106.285 40.6138 106.285 40.6132C106.285 40.6126 106.285 40.612 106.285 40.6113C106.285 40.6107 106.285 40.6101 106.285 40.6095C106.285 40.6089 106.285 40.6083 106.285 40.6077C106.285 40.6071 106.285 40.6065 106.285 40.6058C106.285 40.6052 106.285 40.6046 106.285 40.604C106.285 40.6034 106.285 40.6028 106.285 40.6022C106.285 40.6016 106.285 40.6009 106.285 40.6003C106.285 40.5997 106.285 40.5991 106.285 40.5985C106.285 40.5979 106.285 40.5973 106.285 40.5966C106.285 40.596 106.285 40.5954 106.285 40.5948C106.285 40.5942 106.285 40.5936 106.285 40.5929C106.285 40.5923 106.285 40.5917 106.285 40.5911C106.285 40.5905 106.285 40.5899 106.285 40.5892C106.285 40.5886 106.285 40.588 106.285 40.5874C106.285 40.5868 106.285 40.5861 106.285 40.5855C106.285 40.5849 106.285 40.5843 106.285 40.5837C106.285 40.583 106.285 40.5824 106.285 40.5818C106.285 40.5812 106.285 40.5806 106.285 40.5799C106.285 40.5793 106.285 40.5787 106.285 40.5781C106.285 40.5774 106.285 40.5768 106.285 40.5762C106.285 40.5756 106.285 40.5749 106.285 40.5743C106.285 40.5737 106.285 40.5731 106.285 40.5724C106.285 40.5718 106.285 40.5712 106.285 40.5706C106.285 40.5699 106.285 40.5693 106.285 40.5687C106.285 40.568 106.285 40.5674 106.285 40.5668C106.285 40.5662 106.285 40.5655 106.285 40.5649C106.285 40.5643 106.285 40.5636 106.285 40.563C106.285 40.5624 106.285 40.5618 106.285 40.5611C106.285 40.5605 106.285 40.5599 106.285 40.5592C106.285 40.5586 106.285 40.558 106.285 40.5573C106.285 40.5567 106.285 40.5561 106.285 40.5554C106.285 40.5548 106.285 40.5542 106.285 40.5535C106.285 40.5529 106.285 40.5523 106.285 40.5516C106.285 40.551 106.285 40.5504 106.285 40.5497C106.285 40.5491 106.285 40.5485 106.285 40.5478C106.285 40.5472 106.285 40.5465 106.285 40.5459C106.285 40.5453 106.285 40.5446 106.285 40.544C106.285 40.5434 106.285 40.5427 106.285 40.5421C106.285 40.5414 106.285 40.5408 106.285 40.5402C106.285 40.5395 106.285 40.5389 106.285 40.5382C106.285 40.5376 106.285 40.537 106.285 40.5363C106.285 40.5357 106.285 40.535 106.285 40.5344C106.285 40.5337 106.285 40.5331 106.285 40.5325C106.285 40.5318 106.285 40.5312 106.285 40.5305C106.285 40.5299 106.285 40.5292 106.285 40.5286C106.285 40.528 106.285 40.5273 106.285 40.5267C106.285 40.526 106.285 40.5254 106.285 40.5247C106.285 40.5241 106.285 40.5234 106.285 40.5228C106.285 40.5221 106.285 40.5215 106.285 40.5208C106.285 40.5202 106.285 40.5195 106.285 40.5189C106.285 40.5182 106.285 40.5176 106.285 40.5169C106.285 40.5163 106.285 40.5156 106.285 40.515C106.285 40.5143 106.285 40.5137 106.285 40.513C106.285 40.5124 106.285 40.5117 106.285 40.5111C106.285 40.5104 106.285 40.5098 106.285 40.5091C106.285 40.5085 106.285 40.5078 106.285 40.5072C106.285 40.5065 106.285 40.5059 106.285 40.5052C106.285 40.5046 106.285 40.5039 106.285 40.5032C106.285 40.5026 106.285 40.5019 106.285 40.5013C106.285 40.5006 106.285 40.5 106.285 40.4993C106.285 40.4987 106.285 40.498 106.285 40.4973C106.285 40.4967 106.285 40.496 106.285 40.4954C106.285 40.4947 106.285 40.494 106.285 40.4934C106.285 40.4927 106.285 40.4921 106.285 40.4914C106.285 40.4907 106.285 40.4901 106.285 40.4894C106.285 40.4888 106.285 40.4881 106.285 40.4874C106.285 40.4868 106.285 40.4861 106.285 40.4855C106.285 40.4848 106.285 40.4841 106.285 40.4835C106.285 40.4828 106.285 40.4821 106.285 40.4815C106.285 40.4808 106.285 40.4801 106.285 40.4795H104.285ZM104.376 40.7646C101.993 45.9555 99.7807 50.7418 97.7387 55.1236L99.5515 55.9684C101.595 51.5826 103.809 46.7927 106.193 41.5989L104.376 40.7646ZM97.7353 55.1308C95.7327 59.5195 94.4023 62.3481 93.7345 63.642L95.5117 64.5593C96.2059 63.2144 97.5568 60.3399 99.5549 55.9611L97.7353 55.1308ZM93.7287 63.6534C93.0999 64.911 92.5462 65.8921 92.0674 66.6103L93.7315 67.7197C94.2741 66.9058 94.8695 65.844 95.5175 64.5479L93.7287 63.6534ZM92.0715 66.6042C91.2088 67.8776 90.5976 68.1441 90.2819 68.1441V70.1441C91.6687 70.1441 92.8024 69.0912 93.7273 67.7259L92.0715 66.6042ZM90.2819 68.1441C90.1188 68.1441 89.8543 68.0803 89.4682 67.8201C89.0828 67.5604 88.6295 67.1401 88.1114 66.5224L86.579 67.8076C87.1675 68.5093 87.7569 69.0786 88.3505 69.4786C88.9433 69.8781 89.5938 70.1441 90.2819 70.1441V68.1441ZM88.1214 66.5344C87.0509 65.2169 85.8199 63.4463 84.4275 61.21L82.7297 62.2671C84.1463 64.5423 85.4265 66.3893 86.5691 67.7956L88.1214 66.5344ZM84.4345 61.2214C81.9938 57.1815 79.0323 51.41 75.5482 43.8896L73.7335 44.7303C77.2294 52.2763 80.2264 58.1239 82.7227 62.2557L84.4345 61.2214Z" fill="black" fill-opacity="0.75"/>
</svg>
